<?xml version="1.0" standalone="no"?>
<!DOCTYPE svg PUBLIC "-//W3C//DTD SVG 20010904//EN"
 "http://www.w3.org/TR/2001/REC-SVG-20010904/DTD/svg10.dtd">
<svg version="1.0" xmlns="http://www.w3.org/2000/svg"
 width="325.000000pt" height="341.000000pt" viewBox="0 0 325.000000 341.000000"
 preserveAspectRatio="xMidYMid meet">

<g transform="translate(0.000000,341.000000) scale(0.100000,-0.100000)"
fill="#000000" stroke="none">
<path d="M0 1705 l0 -1705 1625 0 1625 0 0 1705 0 1705 -1625 0 -1625 0 0
-1705z m1781 1638 c86 -51 73 -179 -22 -217 -51 -21 -92 -10 -135 35 -24 25
-29 39 -29 80 0 46 4 54 37 85 30 27 46 34 79 34 22 0 54 -8 70 -17z m-322
-105 c11 -61 19 -114 16 -116 -3 -4 -71 32 -154 81 l-34 21 7 -35 c21 -106 21
-109 -8 -109 -14 0 -26 2 -26 4 0 3 -9 53 -21 112 -11 58 -18 108 -15 111 3 3
46 -18 97 -46 87 -48 91 -49 85 -26 -4 14 -9 45 -13 70 -5 43 -5 45 19 45 25
0 27 -5 47 -112z m611 -3 c30 -46 58 -81 61 -77 3 4 12 29 19 55 13 49 28 64
54 54 12 -5 8 -26 -19 -117 -19 -62 -36 -114 -38 -116 -3 -3 -31 36 -63 87
l-57 92 -20 -67 c-18 -59 -22 -66 -41 -60 -12 4 -23 8 -24 10 -6 4 60 224 67
224 3 0 31 -38 61 -85z m-1240 -104 c8 -17 5 -23 -20 -38 -33 -19 -34 -21 -21
-42 8 -12 15 -10 46 7 44 27 42 26 55 3 9 -17 4 -23 -30 -44 -40 -24 -41 -24
-22 -46 l18 -23 37 22 c30 18 40 20 52 10 21 -17 19 -23 -13 -41 -15 -9 -43
-26 -64 -38 l-36 -22 -61 101 c-34 56 -61 103 -61 105 0 3 101 64 107 65 1 0
7 -9 13 -19z m1823 -113 c9 -11 17 -26 17 -34 0 -19 -38 -18 -57 1 -16 16 -33
12 -33 -9 0 -7 9 -21 20 -31 43 -39 15 -119 -46 -131 -26 -5 -37 -1 -62 23
-39 35 -45 67 -15 71 14 2 26 -4 33 -17 12 -24 48 -28 56 -6 3 8 -4 26 -15 41
-61 78 37 167 102 92z m-1951 -171 c29 -36 30 -40 14 -55 -15 -15 -20 -13 -65
32 l-49 49 -9 -44 c-8 -41 -11 -44 -51 -52 l-42 -8 45 -53 c43 -51 44 -54 26
-70 -18 -16 -22 -13 -100 71 l-82 88 48 8 c110 18 107 16 116 82 12 94 12 94
68 39 28 -27 64 -66 81 -87z m1113 22 c90 -12 248 -61 336 -104 234 -114 427
-308 545 -549 172 -354 155 -782 -45 -1115 -286 -475 -866 -694 -1384 -521
-321 107 -591 355 -716 654 -128 308 -129 627 -1 933 103 247 322 478 562 595
225 109 445 143 703 107z m1040 -39 c56 -56 58 -61 42 -77 -16 -16 -18 -16
-41 6 l-24 23 -70 -66 -69 -66 -19 21 c-18 20 -18 21 -1 34 10 7 42 36 73 65
l55 52 -20 22 c-16 17 -18 25 -9 34 7 7 15 12 18 12 3 0 32 -27 65 -60z m180
-240 c95 -90 3 -249 -120 -208 -97 32 -115 174 -27 223 39 22 116 14 147 -15z
m-2552 -30 c14 -13 -11 -49 -30 -44 -25 6 -77 -77 -69 -110 3 -12 0 -31 -8
-41 -12 -17 -19 -8 -80 93 -36 62 -66 115 -66 118 0 9 244 -7 253 -16z m-323
-239 c0 -5 3 -16 6 -25 4 -10 1 -16 -9 -16 -22 0 -47 -39 -47 -71 0 -32 41
-69 74 -69 51 0 88 59 65 102 -11 21 -12 20 -25 -11 -12 -28 -16 -31 -34 -21
-20 10 -20 11 0 61 10 28 22 54 25 57 10 11 60 -34 79 -72 16 -32 17 -44 7
-76 -23 -78 -108 -113 -181 -75 -69 36 -80 144 -21 197 31 28 61 37 61 19z
m3044 -69 c20 -71 9 -115 -35 -137 -48 -25 -94 -19 -123 16 -14 17 -26 37 -26
45 0 8 -10 14 -24 14 -16 0 -27 7 -31 21 -4 11 -5 22 -3 23 4 4 210 74 219 75
4 1 14 -25 23 -57z m-3080 -274 c-3 -18 -10 -55 -15 -81 -13 -71 -11 -320 5
-415 13 -82 13 -83 -8 -80 -17 3 -22 14 -32 78 -22 132 -15 430 12 518 2 6 12
12 23 12 18 0 20 -5 15 -32z m3073 -48 c6 -41 12 -142 12 -225 0 -82 -6 -184
-12 -225 -11 -66 -15 -75 -35 -78 -19 -3 -22 0 -18 20 33 146 33 424 1 566 -5
20 -2 23 17 20 20 -3 24 -12 35 -78z m-2954 -632 c28 -14 57 -69 57 -109 0
-44 -19 -73 -43 -63 -14 5 -16 14 -11 45 9 55 -15 89 -62 89 -48 0 -89 -40
-80 -78 7 -27 39 -62 57 -62 6 0 5 9 -1 21 -14 26 -5 52 16 47 17 -3 57 -95
48 -110 -10 -15 -79 -8 -112 12 -135 83 -10 280 131 208z m2909 -9 c28 -28 30
-34 25 -80 -5 -39 -3 -51 8 -56 17 -6 20 -39 5 -48 -10 -6 -230 62 -230 70 0
3 9 29 21 60 23 61 52 84 107 85 24 0 42 -8 64 -31z m-135 -279 c131 -79 32
-276 -109 -217 -71 30 -98 115 -56 177 42 61 105 77 165 40z m-2612 -102 c-14
-24 -44 -76 -67 -115 -23 -40 -45 -73 -48 -73 -13 0 -28 47 -20 61 12 20 -46
109 -70 109 -19 0 -46 27 -37 36 7 7 136 21 215 23 l53 1 -26 -42z m2354 -132
c9 -10 8 -16 -4 -26 -24 -20 -18 -32 50 -100 60 -60 63 -65 48 -82 -15 -16
-19 -14 -86 48 l-70 65 -22 -21 c-16 -15 -24 -17 -33 -8 -19 19 -15 26 39 84
56 58 61 61 78 40z m-2175 -155 c3 -4 37 -11 76 -15 38 -4 70 -10 70 -14 0 -4
-37 -45 -83 -90 -80 -79 -84 -82 -100 -64 -16 17 -14 21 34 68 l50 49 -48 11
c-35 7 -49 15 -51 30 -11 72 -9 71 -63 18 -46 -46 -50 -47 -66 -31 -16 16 -13
22 67 102 l85 85 12 -70 c6 -38 14 -74 17 -79z m1976 -51 c0 -11 -11 -27 -25
-36 -20 -13 -23 -20 -14 -30 9 -11 16 -11 41 2 36 18 70 12 98 -18 36 -39 22
-96 -30 -123 -41 -21 -60 -19 -60 8 0 16 9 26 30 34 32 12 40 40 14 50 -8 3
-33 0 -55 -6 -46 -14 -75 -3 -90 36 -12 32 6 73 41 90 35 18 50 16 50 -7z
m-1674 -81 c47 -27 53 -33 44 -50 -13 -23 -20 -24 -46 -4 -25 19 -40 19 -48 0
-4 -11 6 -22 29 -36 38 -23 40 -26 25 -49 -8 -13 -15 -12 -48 7 -37 21 -38 21
-50 2 -18 -28 -16 -33 28 -58 36 -20 39 -25 28 -39 -7 -10 -13 -18 -14 -20 -2
-4 -124 70 -124 76 0 8 114 202 119 202 2 0 28 -14 57 -31z m1300 -234 c18
-60 31 -111 29 -113 -1 -2 -45 15 -96 37 -52 21 -95 38 -96 37 -2 -1 4 -26 13
-55 17 -59 14 -81 -13 -81 -14 0 -25 24 -51 111 -18 61 -31 113 -30 115 2 1
38 -13 81 -31 126 -55 119 -56 96 17 -10 35 -19 64 -19 65 0 3 35 11 44 9 5
-1 24 -51 42 -111z m-845 -22 c28 -34 54 -63 59 -63 4 0 11 21 15 46 3 26 9
53 12 60 5 15 39 19 47 6 6 -9 -36 -232 -43 -232 -3 0 -35 36 -71 80 -72 88
-67 89 -84 -12 -6 -32 -11 -38 -31 -38 -30 0 -30 -1 -5 130 11 58 20 107 20
109 0 9 35 -28 81 -86z m426 38 c122 -56 80 -231 -55 -231 -45 0 -84 26 -107
70 -31 61 -5 132 59 161 51 23 51 23 103 0z"/>
<path d="M1665 3290 c-41 -45 -10 -120 49 -120 37 0 49 7 65 38 36 68 -63 139
-114 82z"/>
<path d="M1535 2390 c-273 -40 -486 -229 -571 -505 -13 -45 -18 -92 -18 -185
0 -108 4 -136 27 -205 72 -217 235 -383 443 -451 80 -26 102 -29 219 -29 109
0 141 4 200 23 199 66 362 220 438 412 32 82 44 133 53 233 l7 77 -347 0 -346
0 0 -120 0 -120 185 0 185 0 -21 -41 c-30 -59 -110 -136 -172 -164 -210 -97
-451 -8 -550 203 -26 56 -32 82 -35 160 -6 133 20 217 97 311 122 150 356 185
524 79 46 -30 137 -122 137 -139 0 -20 27 -6 126 67 l104 75 -17 31 c-28 47
-136 150 -196 186 -91 55 -188 89 -283 101 -97 12 -115 12 -189 1z"/>
<path d="M2906 2549 c-50 -39 -22 -119 43 -119 42 0 74 30 74 70 0 62 -65 90
-117 49z"/>
<path d="M310 2523 c0 -5 9 -19 18 -31 l18 -24 17 25 c9 14 13 27 10 31 -9 9
-63 7 -63 -1z"/>
<path d="M3101 2226 c-40 -14 -47 -27 -31 -55 25 -48 109 -9 96 44 -7 28 -15
29 -65 11z"/>
<path d="M3054 1262 c-12 -8 -38 -52 -32 -56 6 -5 86 -26 97 -26 20 0 13 68
-8 80 -23 12 -42 13 -57 2z"/>
<path d="M2905 955 c-26 -25 -29 -35 -19 -73 7 -23 50 -52 79 -52 25 0 65 46
65 75 0 32 -44 75 -77 75 -13 0 -35 -11 -48 -25z"/>
<path d="M280 888 c0 -7 7 -21 14 -31 13 -16 14 -16 30 7 22 34 21 36 -14 36
-18 0 -30 -5 -30 -12z"/>
<path d="M1683 228 c-25 -12 -45 -60 -36 -86 20 -57 86 -71 122 -26 12 15 21
33 21 40 0 29 -25 64 -53 74 -16 5 -30 10 -31 9 -1 0 -11 -5 -23 -11z"/>
</g>
</svg>
